<svg width="18" height="18" viewBox="0 0 18 18" fill="none" xmlns="http://www.w3.org/2000/svg">
<path d="M9.00002 3.5625C10.3275 3.5625 11.5163 4.02 12.4538 4.9125L15.0225 2.34375C13.4625 0.8925 11.4263 0 9.00002 0C5.48252 0 2.44127 2.0175 0.960022 4.9575L3.95252 7.27875C4.66127 5.145 6.65252 3.5625 9.00002 3.5625Z" fill="#EA4335"/>
<path d="M17.6175 9.20625C17.6175 8.6175 17.5613 8.0475 17.475 7.5H9V10.8825H13.8525C13.635 11.9925 13.005 12.9375 12.06 13.575L14.9588 15.825C16.65 14.2575 17.6175 11.94 17.6175 9.20625Z" fill="#4285F4"/>
<path d="M3.94875 10.7213C3.76875 10.1775 3.66375 9.60002 3.66375 9.00002C3.66375 8.40002 3.765 7.82252 3.94875 7.27877L0.95625 4.95752C0.345 6.17252 0 7.54502 0 9.00002C0 10.455 0.345 11.8275 0.96 13.0425L3.94875 10.7213Z" fill="#FBBC05"/>
<path d="M8.99999 18C11.43 18 13.4737 17.2013 14.9587 15.8213L12.06 13.5713C11.2537 14.115 10.215 14.4338 8.99999 14.4338C6.65249 14.4338 4.66124 12.8513 3.94874 10.7175L0.956238 13.0388C2.44124 15.9825 5.48249 18 8.99999 18Z" fill="#34A853"/>
</svg>