<svg width="12" height="19" viewBox="0 0 12 19" fill="none" xmlns="http://www.w3.org/2000/svg">
<path d="M4.00672 12.8693H6.84479V12.6477C6.86184 10.8409 7.44991 10.0142 8.83911 9.16193C10.4073 8.22443 11.3874 6.94602 11.3874 4.99432C11.3874 2.11364 9.14593 0.306818 5.89025 0.306818C2.90729 0.306818 0.486839 1.96023 0.401611 5.19886H3.4357C3.51241 3.59659 4.6715 2.82955 5.8732 2.82955C7.17718 2.82955 8.22548 3.69886 8.22548 5.03693C8.22548 6.23011 7.43286 7.0483 6.40161 7.69602C4.89309 8.63352 4.02377 9.57955 4.00672 12.6477V12.8693ZM5.4982 18.1875C6.50388 18.1875 7.36468 17.3523 7.3732 16.3125C7.36468 15.2898 6.50388 14.4545 5.4982 14.4545C4.45843 14.4545 3.61468 15.2898 3.6232 16.3125C3.61468 17.3523 4.45843 18.1875 5.4982 18.1875Z" fill="white"/>
</svg>
