<svg width="19" height="16" viewBox="0 0 19 16" fill="none" xmlns="http://www.w3.org/2000/svg">
<path fill-rule="evenodd" clip-rule="evenodd" d="M0 1.33333C0 0.979711 0.140476 0.640573 0.390524 0.390525C0.640573 0.140476 0.979711 0 1.33333 0H17.3333C17.687 0 18.0261 0.140476 18.2761 0.390525C18.5262 0.640573 18.6667 0.979711 18.6667 1.33333C18.6667 1.68696 18.5262 2.02609 18.2761 2.27614C18.0261 2.52619 17.687 2.66667 17.3333 2.66667H1.33333C0.979711 2.66667 0.640573 2.52619 0.390524 2.27614C0.140476 2.02609 0 1.68696 0 1.33333ZM0 8C0 7.64638 0.140476 7.30724 0.390524 7.05719C0.640573 6.80714 0.979711 6.66667 1.33333 6.66667H17.3333C17.687 6.66667 18.0261 6.80714 18.2761 7.05719C18.5262 7.30724 18.6667 7.64638 18.6667 8C18.6667 8.35362 18.5262 8.69276 18.2761 8.94281C18.0261 9.19286 17.687 9.33333 17.3333 9.33333H1.33333C0.979711 9.33333 0.640573 9.19286 0.390524 8.94281C0.140476 8.69276 0 8.35362 0 8ZM0.390524 13.7239C0.140476 13.9739 0 14.313 0 14.6667C0 15.0203 0.140476 15.3594 0.390524 15.6095C0.640573 15.8595 0.979711 16 1.33333 16H17.3333C17.687 16 18.0261 15.8595 18.2761 15.6095C18.5262 15.3594 18.6667 15.0203 18.6667 14.6667C18.6667 14.313 18.5262 13.9739 18.2761 13.7239C18.0261 13.4738 17.687 13.3333 17.3333 13.3333H1.33333C0.979711 13.3333 0.640573 13.4738 0.390524 13.7239Z" fill="white"/>
</svg>
