<svg width="16" height="16" viewBox="0 0 16 16" fill="none" xmlns="http://www.w3.org/2000/svg">
<path fill-rule="evenodd" clip-rule="evenodd" d="M1.33333 16C1.33333 16 0 16 0 14.6667C0 13.3333 1.33333 9.33333 8 9.33333C14.6667 9.33333 16 13.3333 16 14.6667C16 16 14.6667 16 14.6667 16H1.33333ZM8 8C9.06087 8 10.0783 7.57857 10.8284 6.82843C11.5786 6.07828 12 5.06087 12 4C12 2.93913 11.5786 1.92172 10.8284 1.17157C10.0783 0.421427 9.06087 0 8 0C6.93913 0 5.92172 0.421427 5.17157 1.17157C4.42143 1.92172 4 2.93913 4 4C4 5.06087 4.42143 6.07828 5.17157 6.82843C5.92172 7.57857 6.93913 8 8 8Z" fill="white"/>
</svg>
