<svg width="20" height="20" viewBox="0 0 20 20" fill="none" xmlns="http://www.w3.org/2000/svg">
<g>
<path fill="#777777" fill-opacity="1.0" fill-rule="evenodd" clip-rule="evenodd" d="M4 0C1.79086 0 0 1.79086 0 4V16C0 18.2091 1.79086 20 4 20H16C18.2091 20 20 18.2091 20 16V4C20 1.79086 18.2091 0 16 0H4ZM5.17607 4.08035C5.09037 4 5.04752 4 4.96162 4C4.87592 4 4.83307 4.08035 4.79003 4.28114C4.77505 4.32316 4.75485 4.40438 4.72574 4.52139C4.67154 4.73925 4.58648 5.0812 4.44684 5.52526C4.35466 5.89131 4.26253 6.21119 4.18371 6.4849C4.11563 6.7213 4.05747 6.92326 4.01775 7.09078C3.9749 7.1706 4.01775 7.21104 4.0606 7.21104L4.36094 7.29121C4.44684 7.29121 4.48969 7.29122 4.53254 7.21104C4.56215 7.15567 4.59402 7.09396 4.62866 7.02689C4.74483 6.80195 4.89217 6.51665 5.09037 6.20745C5.34767 5.84613 5.69105 5.56517 6.03424 5.40482C6.42028 5.32447 6.89241 5.28438 7.4929 5.24411C7.97355 5.2067 8.37937 5.20421 8.71037 5.20404L9.20924 5.20403V13.3919C9.16639 14.2749 9.16639 14.7967 9.16639 15.0378C9.12354 15.2384 8.95195 15.3987 8.60856 15.3987H7.40739C7.3215 15.3987 7.27845 15.4791 7.3215 15.5592V15.8404C7.27845 15.9607 7.3215 16.0007 7.45024 16.0007C7.47872 16.0007 7.54513 15.9988 7.64851 15.9957C8.01178 15.9849 8.83165 15.9607 10.0672 15.9607C10.8827 15.9607 11.4832 15.9607 11.8695 16.0007H12.513C12.5989 16.0007 12.6848 15.9607 12.6415 15.9207V15.5592C12.6848 15.4791 12.5989 15.3987 12.513 15.3987H11.4404C11.0113 15.3987 10.8397 15.158 10.7967 14.7566V5.20403H11.3116C11.7064 5.20403 12.2099 5.23796 12.7559 5.27474C12.8033 5.27794 12.8511 5.28116 12.8992 5.28438C13.4803 5.28438 13.9008 5.39715 14.1996 5.47725C14.2096 5.47993 14.2194 5.48257 14.2291 5.48517C14.5297 5.68578 14.7868 5.96657 15.0445 6.40824C15.2591 6.80964 15.3877 7.09078 15.4736 7.29121C15.5164 7.41165 15.5593 7.41165 15.6023 7.41165L15.9026 7.3313C15.9453 7.3313 16.0312 7.29122 15.9883 7.21104C15.9026 6.76919 15.8167 6.20745 15.7308 5.52526C15.7177 5.45546 15.705 5.38818 15.6928 5.32352C15.5856 4.75581 15.5164 4.3891 15.5164 4.28114C15.4736 4.08035 15.3877 4 15.3446 4C15.3018 4 15.2159 4 15.1302 4.08035L14.7868 4.28114C14.5297 4.4014 14.2291 4.48176 13.886 4.48176C13.4997 4.52166 13.0706 4.56175 12.5989 4.60201H7.75039C7.5139 4.58184 7.27745 4.57177 7.041 4.5617C6.80561 4.55168 6.57021 4.54166 6.33477 4.52166C5.94854 4.48176 5.6482 4.4014 5.39071 4.20061L5.17607 4.08035Z" />
</g>
</svg>
